{"title":"The.Losers.DVDRip.XviD-ALLiANCE","uid":5663430,"size":741989697,"categoryP":"video","categoryS":"movies","magnet":"?xt=urn:btih:b6471d800de70c66d550ddcd44a6ef9ef6dfca92&amp;dn=The.Losers.DVDRip.XviD-ALLiANCE&amp;tr=udp%3A%2F%2Ftracker.openbittorrent.com%3A80&amp;tr=udp%3A%2F%2Fopen.demonii.com%3A1337&amp;tr=udp%3A%2F%2Ftracker.coppersurfer.tk%3A6969&amp;tr=udp%3A%2F%2Fexodus.desync.com%3A6969","seeders":0,"leechers":1,"uploader":"hiest","files":-1,"time":1278050293,"description":"Description\n\n\nPlot Summary \nThe Losers (2010/I) \n \n\nA tale of double cross and revenge, centered upon the members of an elite U.S. Special Forces unit sent into the Bolivian jungle on a search and destroy mission. The team-Clay, Jensen, Roque, Pooch and Cougar -find themselves the target of a lethal betrayal instigated from inside by a powerful enemy known only as Max. Presumed dead, the group makes plans to even the score when they're joined by the mysterious Aisha, a beautiful operative with her own agenda. Working together, they must remain deep undercover while tracking the heavily-guarded Max, a ruthless man bent on embroiling the world in a new high-tech global war. \n\n &lt;a href=&quot;\nhttp://www.imdb.com/title/tt0480255/&quot; rel=&quot;nofollow&quot; target=&quot;_NEW&quot;&gt;\nhttp://www.imdb.com/title/tt0480255/&lt;/a&gt;\n\n\nDirector:\nSylvain White\n\n\nRelease Date:\n23 April 2010 (USA)\n\n\nGenre:\nAction | Adventure | Crime | Mystery | Thriller\n\n\nRuntime:\n97 min \n\n\nCountry:\nUSA\n\n\nLanguage:\nEnglish\n\n\n\n\nVideo\n\nID : 0\nFormat : MPEG-4 Visual\nFormat profile : Advanced Simple@L5\nFormat settings, BVOP : Yes\nFormat settings, QPel : No\nFormat settings, GMC : No warppoints\nFormat settings, Matrix : Default (H.263)\nCodec ID : XVID\nCodec ID/Hint : XviD\nDuration : 1h 36mn\nBit rate : 868 Kbps\nWidth : 608 pixels\nHeight : 256 pixels\nDisplay aspect ratio : 2.35:1\nFrame rate : 23.976 fps\nResolution : 8 bits\nColorimetry : 4:2:0\nScan type : Progressive\nBits/(Pixel*Frame) : 0.233\nStream size : 602 MiB (86%)\nWriting library : XviD 1.2.1 (UTC 2008-12-04)\n\n\n\nAudio\n\nID : 1\nFormat : MPEG Audio\nFormat version : Version 1\nFormat profile : Layer 3\nMode : Joint stereo\nFormat_Settings_ModeExtension : MS Stereo\nCodec ID : 55\nCodec ID/Hint : MP3\nDuration : 1h 36mn\nBit rate mode : Variable\nBit rate : 126 Kbps\nNominal bit rate : 128 Kbps\nChannel(s) : 2 channels\nSampling rate : 48.0 KHz\nStream size : 87.5 MiB (13%)\nAlignment : Aligned on interleaves\nInterleave, duration : 24 ms (0.58 video frame)\nInterleave, preload duration : 140 ms\nWriting library : LAME3.90.\nEncoding settings : -m j -V 4 -q 2 -lowpass 17.6 --abr 128\n\n\nScreenshots \n &lt;a href=&quot;\nhttp://postimg.com/image/18000/17305.jpg&quot; rel=&quot;nofollow&quot; target=&quot;_NEW&quot;&gt;\nhttp://postimg.com/image/18000/17305.jpg&lt;/a&gt;\n\n\n","torrent":{"xt":"urn:btih:b6471d800de70c66d550ddcd44a6ef9ef6dfca92","amp;dn":"The.Losers.DVDRip.XviD-ALLiANCE","amp;tr":["udp%3A%2F%2Ftracker.openbittorrent.com%3A80","udp%3A%2F%2Fopen.demonii.com%3A1337","udp%3A%2F%2Ftracker.coppersurfer.tk%3A6969","udp%3A%2F%2Fexodus.desync.com%3A6969"],"infoHash":"b6471d800de70c66d550ddcd44a6ef9ef6dfca92","infoHashBuffer":{"type":"Buffer","data":[182,71,29,128,13,231,12,102,213,80,221,205,68,166,239,158,246,223,202,146]},"announce":[],"urlList":[]}}